<svg xmlns="http://www.w3.org/2000/svg" viewBox="0 0 512 512" role="img" aria-label="Rewritr app icon">
  <defs>
    <linearGradient id="bg" x1="92" y1="68" x2="420" y2="444" gradientUnits="userSpaceOnUse">
      <stop offset="0" stop-color="#263241"/>
      <stop offset="1" stop-color="#111827"/>
    </linearGradient>
    <linearGradient id="pencil" x1="286" y1="164" x2="394" y2="272" gradientUnits="userSpaceOnUse">
      <stop offset="0" stop-color="#60a5fa"/>
      <stop offset="1" stop-color="#2563eb"/>
    </linearGradient>
  </defs>
  <rect x="36" y="36" width="440" height="440" rx="100" fill="url(#bg)"/>
  <path d="M142 132h176c54 0 94 37 94 86s-40 86-94 86h-58l-64 58c-9 8-23 2-23-10v-48h-31c-54 0-94-37-94-86s40-86 94-86z" fill="#f8fafc"/>
  <path d="M171 190h132c10 0 18 8 18 18s-8 18-18 18H171c-10 0-18-8-18-18s8-18 18-18z" fill="#94a3b8"/>
  <path d="M171 248h84c10 0 18 8 18 18s-8 18-18 18h-84c-10 0-18-8-18-18s8-18 18-18z" fill="#94a3b8"/>
  <path d="M338 168l58 58-124 124-70 20 20-70 116-132z" fill="url(#pencil)"/>
  <path d="M376 130c14-14 36-14 50 0l12 12c14 14 14 36 0 50l-25 25-62-62 25-25z" fill="#f59e0b"/>
  <path d="M202 370l20-70 50 50-70 20z" fill="#e2e8f0"/>
  <path d="M202 370l12-42 30 30-42 12z" fill="#0f172a"/>
</svg>
